<svg width="800" height="800" viewBox="0 0 800 800" fill="none" xmlns="http://www.w3.org/2000/svg">
<path d="M400 733.333C584.093 733.333 733.333 584.093 733.333 400C733.333 215.905 584.093 66.6665 400 66.6665C215.905 66.6665 66.6665 215.905 66.6665 400C66.6665 584.093 215.905 733.333 400 733.333Z" stroke="white" stroke-width="50" stroke-linecap="round" stroke-linejoin="round"/>
<path d="M266.666 100H300C235 294.667 235 505.333 300 700H266.666" stroke="white" stroke-width="50" stroke-linecap="round" stroke-linejoin="round"/>
<path d="M500 100C565 294.667 565 505.333 500 700" stroke="white" stroke-width="50" stroke-linecap="round" stroke-linejoin="round"/>
<path d="M100 533.333V500C294.667 565 505.333 565 700 500V533.333" stroke="white" stroke-width="50" stroke-linecap="round" stroke-linejoin="round"/>
<path d="M100 300.003C294.667 235.003 505.333 235.003 700 300.003" stroke="white" stroke-width="50" stroke-linecap="round" stroke-linejoin="round"/>
</svg>
