<svg width="800" height="800" viewBox="0 0 800 800" fill="none" xmlns="http://www.w3.org/2000/svg">
<path fill-rule="evenodd" clip-rule="evenodd" d="M309.763 43.0965C316.014 36.8455 324.493 33.3335 333.333 33.3335H600C655.23 33.3335 700 78.1052 700 133.333V300C700 318.409 685.077 333.333 666.667 333.333C648.257 333.333 633.333 318.409 633.333 300V133.333C633.333 114.924 618.41 100 600 100H366.667V266.667C366.667 285.076 351.743 300 333.333 300H166.667V666.667C166.667 685.077 181.591 700 200 700H300C318.409 700 333.333 714.923 333.333 733.333C333.333 751.743 318.409 766.667 300 766.667H200C144.772 766.667 100 721.897 100 666.667V266.667C100 257.826 103.512 249.348 109.763 243.096L309.763 43.0965ZM213.807 233.333H300V147.14L213.807 233.333ZM593.343 478.547C602.57 462.71 597.28 442.39 581.497 433.067L496.243 382.703C471.17 367.89 439.383 371.067 417.737 390.55L364.407 438.547C341.44 459.217 335.687 492.957 350.5 520.07L401.133 612.723C410.133 629.193 430.95 634.99 447.163 625.54L483.22 604.533C497.497 596.213 515.717 599.61 526.037 612.517L556.68 650.847L562.817 646.053C569.787 640.61 578.633 638.16 587.41 639.24C596.187 640.323 604.173 644.847 609.613 651.817L647.99 701C664.273 721.867 697.21 716.343 705.8 691.31L709.047 681.843L577.143 557.597C565.857 546.963 563.393 529.95 571.2 516.553L593.343 478.547ZM615.407 375.67C662.753 403.64 678.63 464.593 650.943 512.11L642.137 527.23L770.41 648.06C779.94 657.037 783.33 670.76 779.083 683.143L768.857 712.947C743.09 788.05 644.28 804.61 595.433 742.013L577.57 719.12L571.74 723.673C557.347 734.91 536.593 732.48 525.19 718.217L491.927 676.617L480.727 683.143C432.08 711.487 369.63 694.1 342.63 644.693L291.999 552.037C262.368 497.813 273.877 430.333 319.807 388.993L373.14 340.997C416.433 302.032 480.007 295.678 530.153 325.304L615.407 375.67ZM450 533.333C477.613 533.333 500 510.947 500 483.333C500 455.72 477.613 433.333 450 433.333C422.387 433.333 400 455.72 400 483.333C400 510.947 422.387 533.333 450 533.333Z" fill="white"/>
</svg>
