<svg width="800" height="800" viewBox="0 0 800 800" fill="none" xmlns="http://www.w3.org/2000/svg">
<path d="M482.812 174.219C468.945 174.317 455.176 175 440.625 178.906C426.074 182.813 411.523 189.063 396.094 199.219C376.953 187.988 358.398 178.711 340.625 176.563C318.555 173.828 298.047 175.293 274.219 175.781C245.996 176.367 227.539 190.82 197.656 202.344C167.773 213.867 129.297 225 75 225H50V465.625L64.0625 472.656L110.156 495.313L274.219 678.125L275 678.906C293.75 697.461 319.043 702.051 341.406 700.781C363.77 699.512 384.766 692.969 401.562 682.813C438.477 660.547 539.062 590.625 539.062 590.625L541.406 589.063L542.969 587.5C554.883 575.684 560.84 561.231 564.844 546.094L660.938 497.656L732.812 473.438L750 467.969V225H725C670.801 225 632.227 213.281 602.344 201.563C572.461 189.844 554.297 175.586 525.781 175C510.547 174.707 496.68 174.121 482.812 174.219ZM483.594 224.219C494.824 224.121 507.812 224.707 524.219 225C526.855 225.098 550.879 235.352 584.375 248.438C612.695 259.57 652.051 269.434 700 272.656V432.031L642.188 451.563H640.625L639.062 452.344L563.281 490.625C559.082 479.199 553.32 468.652 544.531 459.375L542.969 457.031L436.719 326.563L421.094 307.031L401.562 322.656L334.375 377.344C311.816 392.969 293.555 388.477 275 379.688C269.629 377.149 269.922 376.367 265.625 373.438L379.688 278.906L381.25 277.344C415.137 243.75 435.938 232.129 453.906 227.344C462.891 224.902 472.363 224.317 483.594 224.219ZM309.375 225C318.945 224.805 326.953 224.902 334.375 225.781C340.918 226.563 348.34 232.129 354.688 234.375C352.148 236.719 350.293 238.086 347.656 240.625C347.07 241.211 346.68 241.602 346.094 242.188L209.375 355.469L188.281 372.656L207.031 392.188C207.031 392.188 225.098 411.719 253.125 425C281.152 438.281 324.414 445.801 363.281 418.75L364.844 417.188L413.281 377.344L505.469 490.625L506.25 492.188L507.031 492.969C523.535 509.277 523.145 534.961 507.031 551.563C506.836 551.758 507.227 552.149 507.031 552.344C506.836 552.441 503.516 554.395 503.125 554.688L470.312 510.156L429.688 539.844L461.719 582.813C448.73 591.602 442.871 596.191 428.906 605.469L395.312 560.156L354.688 589.844L386.719 632.813C383.887 634.57 378.027 638.477 375.781 639.844C367.871 644.629 352.637 650 339.062 650.781C326.27 651.465 316.504 648.535 311.719 644.531L310.938 643.75L143.75 458.594L140.625 454.688L100 434.375V272.656C147.754 269.531 187.402 260.059 215.625 249.219C249.023 236.426 272.852 225.879 275.781 225.781C288.574 225.488 299.805 225.195 309.375 225Z" fill="white"/>
</svg>
