<svg width="800" height="800" viewBox="0 0 800 800" fill="none" xmlns="http://www.w3.org/2000/svg">
<path d="M722.625 314.15C721.924 312.754 721.087 311.431 720.125 310.2C719.399 306.595 718.421 303.044 717.2 299.575L716.675 298.35L647.925 140C645.979 135.54 642.772 131.745 638.7 129.08C634.628 126.416 629.867 124.998 625 125H175C170.134 124.998 165.372 126.416 161.3 129.08C157.228 131.745 154.022 135.54 152.075 140L82.8251 299.525C76.2321 316.257 76.2321 334.868 82.8251 351.6C89.1947 366.161 98.4223 379.295 109.961 390.224C121.5 401.153 135.115 409.655 150 415.225V675C150 681.63 152.634 687.989 157.322 692.678C162.011 697.366 168.37 700 175 700H625C631.631 700 637.989 697.366 642.678 692.678C647.366 687.989 650 681.63 650 675V415.225C664.888 409.662 678.507 401.166 690.051 390.241C701.594 379.316 710.826 366.184 717.2 351.625C719.261 346.366 720.631 340.862 721.275 335.25C722.941 332.015 723.92 328.472 724.152 324.841C724.385 321.21 723.865 317.57 722.625 314.15ZM600 650H200V425C218.94 425.237 237.704 421.333 254.977 413.56C272.251 405.787 287.617 394.333 300 380C312.525 394.167 327.917 405.512 345.157 413.281C362.396 421.051 381.09 425.069 400 425.069C418.91 425.069 437.604 421.051 454.844 413.281C472.083 405.512 487.475 394.167 500 380C512.384 394.333 527.75 405.787 545.023 413.56C562.297 421.333 581.06 425.237 600 425V650ZM670.95 332.5C664.551 345.727 654.427 356.795 641.822 364.346C629.217 371.896 614.681 375.599 600 375C581.804 376.48 563.754 370.761 549.73 359.074C535.705 347.387 526.826 330.664 525 312.5C525 305.87 522.366 299.511 517.678 294.822C512.989 290.134 506.631 287.5 500 287.5C493.37 287.5 487.011 290.134 482.322 294.822C477.634 299.511 475 305.87 475 312.5C473.174 330.664 464.295 347.387 450.27 359.074C436.246 370.761 418.196 376.48 400 375C381.804 376.48 363.754 370.761 349.73 359.074C335.705 347.387 326.826 330.664 325 312.5C325 305.87 322.366 299.511 317.678 294.822C312.989 290.134 306.631 287.5 300 287.5C293.37 287.5 287.011 290.134 282.322 294.822C277.634 299.511 275 305.87 275 312.5C273.174 330.664 264.295 347.387 250.27 359.074C236.246 370.761 218.196 376.48 200 375C185.319 375.599 170.783 371.896 158.178 364.346C145.573 356.795 135.449 345.727 129.05 332.5C127.375 327.889 127.375 322.836 129.05 318.225L191.4 175H608.6L670.55 317.5C672.49 322.288 672.632 327.616 670.95 332.5ZM412.125 439.525C404.101 438.243 395.924 438.243 387.9 439.525C377.224 441.291 367.122 445.572 358.428 452.015C349.734 458.457 342.697 466.876 337.9 476.575C332.537 487.13 329.721 498.794 329.678 510.633C329.635 522.472 332.365 534.156 337.65 544.75L377.65 624.75C379.724 628.91 382.916 632.41 386.868 634.856C390.821 637.302 395.377 638.598 400.025 638.598C404.673 638.598 409.23 637.302 413.182 634.856C417.135 632.41 420.327 628.91 422.4 624.75L462.4 544.75C467.689 534.157 470.422 522.472 470.378 510.633C470.335 498.793 467.517 487.129 462.15 476.575C457.354 466.87 450.314 458.447 441.615 452.004C432.916 445.561 422.807 441.284 412.125 439.525ZM417.6 522.3L400 557.5L382.5 522.325C380.732 518.745 379.812 514.805 379.812 510.813C379.812 506.82 380.732 502.88 382.5 499.3C383.739 496.619 385.607 494.276 387.943 492.47C390.28 490.664 393.018 489.448 395.925 488.925C397.271 488.689 398.634 488.563 400 488.55C401.348 488.553 402.694 488.661 404.025 488.875C406.94 489.393 409.687 490.61 412.029 492.421C414.372 494.232 416.24 496.584 417.475 499.275C419.254 502.851 420.183 506.79 420.187 510.785C420.191 514.779 419.272 518.72 417.5 522.3H417.6Z" fill="white"/>
</svg>
