<svg width="94" height="94" viewBox="0 0 94 94" fill="none" xmlns="http://www.w3.org/2000/svg">
<path d="M44.7283 59.4158L67.5625 82.25C69.5208 84.1457 72.1458 85.1958 74.8713 85.1737C77.5968 85.1515 80.2044 84.059 82.1317 82.1317C84.059 80.2044 85.1515 77.5968 85.1736 74.8713C85.1958 72.1458 84.1457 69.5208 82.25 67.5625L59.2317 44.5443M44.7283 59.4158L54.5043 47.5483C55.7459 46.0443 57.4027 45.0965 59.2357 44.5482M44.7283 59.4158L26.4962 81.5567C25.6126 82.6339 24.5132 83.514 23.2689 84.1406C22.0245 84.7672 20.6628 85.1262 19.2713 85.1947C17.8798 85.2632 16.4893 85.0396 15.1895 84.5382C13.8896 84.0369 12.7091 83.269 11.724 82.2838C10.7389 81.2987 9.97091 80.1182 9.46957 78.8183C8.96823 77.5185 8.7446 76.128 8.81309 74.7365C8.88158 73.345 9.24066 71.9833 9.86723 70.7389C10.4938 69.4946 11.374 68.3952 12.4511 67.5116L39.2293 45.4608M59.2357 44.5482C61.3898 43.9058 63.7907 43.8118 66.0624 43.9998C69.1246 44.2628 72.2023 43.7204 74.9901 42.4266C77.7779 41.1327 80.1789 39.1324 81.9549 36.624C83.7308 34.1156 84.82 31.1865 85.1143 28.1271C85.4086 25.0678 84.8978 21.9848 83.6326 19.1838L70.8016 32.0187C68.6549 31.5224 66.6907 30.4331 65.1327 28.8751C63.5747 27.3171 62.4855 25.353 61.9891 23.2063L74.8201 10.3752C72.0191 9.11002 68.9361 8.59921 65.8768 8.89351C62.8175 9.18781 59.8883 10.277 57.3799 12.0529C54.8716 13.8289 52.8712 16.2299 51.5773 19.0178C50.2835 21.8056 49.7411 24.8833 50.0041 27.9454C50.3605 32.1597 49.726 36.8127 46.4634 39.4996L46.0639 39.8325M39.2293 45.4608L23.1436 29.375H17.625L8.81249 14.6875L14.6875 8.8125L29.375 17.625V23.1436L46.06 39.8286M39.2254 45.4568L46.06 39.8286L39.2254 45.4568ZM71.9687 71.9687L61.6875 61.6875L71.9687 71.9687ZM19.0624 74.9062H19.0937V74.9376H19.0624V74.9062Z" fill="white"/>
<path d="M44.7283 59.4158L67.5625 82.25C69.5208 84.1457 72.1458 85.1958 74.8713 85.1737C77.5968 85.1515 80.2044 84.059 82.1317 82.1317C84.059 80.2044 85.1515 77.5968 85.1736 74.8713C85.1958 72.1458 84.1457 69.5208 82.25 67.5625L59.2317 44.5442M44.7283 59.4158L54.5043 47.5483C55.7459 46.0443 57.4027 45.0965 59.2357 44.5482C61.3898 43.9058 63.7907 43.8118 66.0624 43.9998C69.1246 44.2628 72.2023 43.7204 74.9901 42.4266C77.7779 41.1327 80.1789 39.1324 81.9549 36.624C83.7308 34.1156 84.82 31.1865 85.1143 28.1271C85.4086 25.0678 84.8978 21.9848 83.6326 19.1838L70.8016 32.0187C68.6549 31.5224 66.6907 30.4331 65.1327 28.8751C63.5747 27.3171 62.4855 25.353 61.9891 23.2063L74.8201 10.3752C72.0191 9.11002 68.9361 8.59921 65.8768 8.89351C62.8175 9.18781 59.8883 10.277 57.3799 12.0529C54.8716 13.8289 52.8712 16.2299 51.5773 19.0178C50.2835 21.8056 49.7411 24.8833 50.0041 27.9454C50.3605 32.1597 49.726 36.8127 46.4634 39.4996L46.0639 39.8325M44.7283 59.4158L26.4962 81.5567C25.6126 82.6339 24.5132 83.514 23.2689 84.1406C22.0245 84.7672 20.6628 85.1262 19.2713 85.1947C17.8798 85.2632 16.4893 85.0396 15.1895 84.5382C13.8896 84.0369 12.7091 83.269 11.724 82.2838C10.7389 81.2987 9.97091 80.1182 9.46957 78.8183C8.96823 77.5185 8.7446 76.128 8.81309 74.7365C8.88158 73.345 9.24066 71.9833 9.86723 70.7389C10.4938 69.4946 11.374 68.3952 12.4511 67.5116L39.2293 45.4607L23.1436 29.375H17.625L8.81249 14.6875L14.6875 8.8125L29.375 17.625V23.1436L46.06 39.8286L39.2254 45.4568M71.9687 71.9687L61.6875 61.6875M19.0624 74.9062H19.0937V74.9376H19.0624V74.9062Z" stroke="black" stroke-width="1.5" stroke-linecap="round" stroke-linejoin="round"/>
</svg>
