<svg width="97" height="97" viewBox="0 0 97 97" fill="none" xmlns="http://www.w3.org/2000/svg">
<path d="M60.047 69.0398C67.5775 68.1482 74.9764 66.371 82.0903 63.7452C76.0657 57.0716 72.7367 48.3969 72.75 39.4063V36.5771V36.375C72.75 29.9435 70.1951 23.7754 65.6473 19.2277C61.0996 14.6799 54.9315 12.125 48.5 12.125C42.0685 12.125 35.9004 14.6799 31.3527 19.2277C26.8049 23.7754 24.25 29.9435 24.25 36.375V39.4063C24.2622 48.3975 20.9317 57.0722 14.9057 63.7452C21.9099 66.3318 29.294 68.1304 36.953 69.0398M60.047 69.0398C52.3759 69.9497 44.6241 69.9497 36.953 69.0398M60.047 69.0398C60.6295 70.8579 60.7743 72.788 60.4697 74.6727C60.1652 76.5575 59.4199 78.3436 58.2945 79.8859C57.1691 81.4281 55.6954 82.6828 53.9934 83.5478C52.2914 84.4128 50.4092 84.8636 48.5 84.8636C46.5908 84.8636 44.7086 84.4128 43.0066 83.5478C41.3046 82.6828 39.8309 81.4281 38.7055 79.8859C37.5801 78.3436 36.8348 76.5575 36.5302 74.6727C36.2257 72.788 36.3705 70.8579 36.953 69.0398M12.6262 30.3125C13.7658 23.5426 16.8044 17.2355 21.3885 12.125M75.6115 12.125C80.1956 17.2355 83.2342 23.5426 84.3738 30.3125" stroke="black" stroke-width="1.5" stroke-linecap="round" stroke-linejoin="round"/>
</svg>
