<svg width="85" height="85" viewBox="0 0 85 85" fill="none" xmlns="http://www.w3.org/2000/svg">
<path d="M55.2146 50.8937C55.9521 54.0142 55.9738 57.2611 55.2782 60.3912C54.5826 63.5212 53.1877 66.4533 51.198 68.9677C49.2083 71.4821 46.6754 73.5136 43.789 74.9101C40.9026 76.3065 37.7377 77.0317 34.5312 77.0312V60.0313M55.2146 50.8937C61.9788 45.9665 67.4814 39.509 71.2731 32.0488C75.0647 24.5886 77.0379 16.3372 77.0312 7.96875C68.6634 7.96271 60.4127 9.93609 52.9531 13.7277C45.4936 17.5194 39.0367 23.0217 34.1098 29.7854M55.2146 50.8937C49.0588 55.3962 42.0053 58.5133 34.5312 60.0313L55.2146 50.8937ZM34.1098 29.7854C30.9891 29.0473 27.7418 29.0251 24.6113 29.7204C21.4808 30.4157 18.5482 31.8105 16.0334 33.8003C13.5186 35.7901 11.4867 38.3232 10.09 41.2099C8.69337 44.0966 7.96817 47.2619 7.96875 50.4688H24.9688M34.1098 29.7854C29.6079 35.9402 26.4873 42.996 24.9688 50.4688L34.1098 29.7854ZM34.5312 60.0313C34.1665 60.1056 33.7981 60.1765 33.4298 60.2438C30.2167 57.6959 27.3076 54.7868 24.7598 51.5737C24.8267 51.2047 24.894 50.8363 24.9688 50.4688M17.039 58.9333C14.7092 60.6658 12.8978 63.0026 11.8009 65.6908C10.7041 68.3789 10.3635 71.3159 10.8163 74.1837C13.6844 74.6361 16.6216 74.295 19.3098 73.1975C21.998 72.1 24.3346 70.2879 26.0667 67.9575M58.4375 31.875C58.4375 33.284 57.8778 34.6352 56.8815 35.6315C55.8852 36.6278 54.534 37.1875 53.125 37.1875C51.716 37.1875 50.3648 36.6278 49.3685 35.6315C48.3722 34.6352 47.8125 33.284 47.8125 31.875C47.8125 30.466 48.3722 29.1148 49.3685 28.1185C50.3648 27.1222 51.716 26.5625 53.125 26.5625C54.534 26.5625 55.8852 27.1222 56.8815 28.1185C57.8778 29.1148 58.4375 30.466 58.4375 31.875Z" fill="white"/>
<path d="M55.2146 50.8937C55.9521 54.0142 55.9738 57.2611 55.2782 60.3912C54.5826 63.5212 53.1877 66.4533 51.198 68.9677C49.2083 71.4821 46.6754 73.5136 43.789 74.9101C40.9026 76.3065 37.7377 77.0317 34.5313 77.0312V60.0313M55.2146 50.8937C61.9788 45.9665 67.4814 39.509 71.2731 32.0488C75.0647 24.5886 77.0379 16.3372 77.0313 7.96875C68.6634 7.96271 60.4127 9.93609 52.9531 13.7277C45.4936 17.5194 39.0367 23.0217 34.1098 29.7854M55.2146 50.8937C49.0588 55.3962 42.0053 58.5133 34.5313 60.0313M34.5313 60.0313C34.1665 60.1056 33.7981 60.1765 33.4298 60.2438C30.2167 57.6959 27.3076 54.7868 24.7598 51.5738C24.8267 51.2047 24.894 50.8363 24.9688 50.4687M34.1098 29.7854C30.9891 29.0473 27.7418 29.0251 24.6113 29.7204C21.4808 30.4157 18.5482 31.8105 16.0334 33.8003C13.5186 35.7901 11.4867 38.3232 10.09 41.2099C8.69337 44.0966 7.96817 47.2619 7.96875 50.4687H24.9688M34.1098 29.7854C29.6079 35.9402 26.4873 42.996 24.9688 50.4687M17.039 58.9333C14.7092 60.6658 12.8978 63.0026 11.8009 65.6908C10.7041 68.3789 10.3635 71.3159 10.8163 74.1837C13.6844 74.6361 16.6216 74.295 19.3098 73.1975C21.998 72.1 24.3346 70.2879 26.0667 67.9575M58.4375 31.875C58.4375 33.284 57.8778 34.6352 56.8815 35.6315C55.8852 36.6278 54.534 37.1875 53.125 37.1875C51.716 37.1875 50.3648 36.6278 49.3685 35.6315C48.3722 34.6352 47.8125 33.284 47.8125 31.875C47.8125 30.466 48.3722 29.1148 49.3685 28.1185C50.3648 27.1222 51.716 26.5625 53.125 26.5625C54.534 26.5625 55.8852 27.1222 56.8815 28.1185C57.8778 29.1148 58.4375 30.466 58.4375 31.875Z" stroke="black" stroke-width="1.5" stroke-linecap="round" stroke-linejoin="round"/>
</svg>
