<svg width="103" height="103" viewBox="0 0 103 103" fill="none" xmlns="http://www.w3.org/2000/svg">
<path d="M28.9688 32.1875L41.8437 41.8438L28.9688 51.5M48.2812 51.5H61.1562H48.2812ZM22.5312 86.9062H80.4688C83.0297 86.9062 85.4858 85.8889 87.2967 84.078C89.1076 82.2671 90.125 79.811 90.125 77.25V25.75C90.125 23.189 89.1076 20.7329 87.2967 18.922C85.4858 17.1111 83.0297 16.0938 80.4688 16.0938H22.5312C19.9703 16.0938 17.5141 17.1111 15.7032 18.922C13.8924 20.7329 12.875 23.189 12.875 25.75V77.25C12.875 79.811 13.8924 82.2671 15.7032 84.078C17.5141 85.8889 19.9703 86.9062 22.5312 86.9062Z" fill="white"/>
<path d="M28.9687 32.1875L41.8437 41.8437L28.9687 51.5M48.2812 51.5H61.1562M22.5312 86.9062H80.4687C83.0297 86.9062 85.4858 85.8889 87.2967 84.078C89.1076 82.2671 90.125 79.811 90.125 77.25V25.75C90.125 23.189 89.1076 20.7329 87.2967 18.922C85.4858 17.1111 83.0297 16.0938 80.4687 16.0938H22.5312C19.9703 16.0938 17.5141 17.1111 15.7032 18.922C13.8924 20.7329 12.875 23.189 12.875 25.75V77.25C12.875 79.811 13.8924 82.2671 15.7032 84.078C17.5141 85.8889 19.9703 86.9062 22.5312 86.9062Z" stroke="black" stroke-width="1.5" stroke-linecap="round" stroke-linejoin="round"/>
</svg>
