<svg width="93" height="93" viewBox="0 0 93 93" fill="none" xmlns="http://www.w3.org/2000/svg">
<path d="M43.9813 14.8645C43.7294 15.6782 43.5938 16.5424 43.5938 17.4375C43.5938 19.0417 44.8958 20.3438 46.5 20.3438H63.9375C64.7083 20.3438 65.4475 20.0376 65.9925 19.4925C66.5376 18.9475 66.8438 18.2083 66.8438 17.4375C66.844 16.5653 66.7134 15.698 66.4562 14.8645M43.9813 14.8645C44.5316 13.0847 45.6373 11.5279 47.1365 10.422C48.6357 9.31606 50.4496 8.71919 52.3125 8.71875H58.125C62.0465 8.71875 65.3596 11.3073 66.4562 14.8645M43.9813 14.8645C42.5243 14.9536 41.075 15.0582 39.6257 15.1745C35.2431 15.5387 31.9688 19.2704 31.9688 23.6685V31.9688M66.4562 14.8645C67.9132 14.9536 69.3625 15.0582 70.8118 15.1745C75.1944 15.5387 78.4688 19.2704 78.4688 23.6685V63.9375C78.4688 66.2499 77.5502 68.4675 75.9151 70.1026C74.28 71.7377 72.0624 72.6562 69.75 72.6562H61.0312M31.9688 31.9688H18.8906C16.4843 31.9688 14.5312 33.9217 14.5312 36.3281V79.9219C14.5312 82.3282 16.4843 84.2812 18.8906 84.2812H56.6719C59.0783 84.2812 61.0312 82.3282 61.0312 79.9219V72.6562M31.9688 31.9688H56.6719C59.0783 31.9688 61.0312 33.9217 61.0312 36.3281V72.6562M29.0625 61.0312L34.875 66.8438L46.5 52.3125" fill="white"/>
<path d="M43.9813 14.8645C43.7294 15.6783 43.5938 16.5424 43.5938 17.4375C43.5938 19.0418 44.8957 20.3438 46.5 20.3438H63.9375C64.7083 20.3437 65.4475 20.0376 65.9925 19.4925C66.5376 18.9475 66.8438 18.2083 66.8438 17.4375C66.844 16.5653 66.7134 15.698 66.4562 14.8645M43.9813 14.8645C44.5316 13.0847 45.6373 11.5279 47.1365 10.422C48.6357 9.31606 50.4496 8.71919 52.3125 8.71875H58.125C62.0465 8.71875 65.3596 11.3073 66.4562 14.8645M43.9813 14.8645C42.5243 14.9536 41.075 15.0582 39.6257 15.1745C35.2431 15.5387 31.9688 19.2704 31.9688 23.6685V31.9688M66.4562 14.8645C67.9132 14.9536 69.3625 15.0582 70.8118 15.1745C75.1944 15.5387 78.4688 19.2704 78.4688 23.6685V63.9375C78.4688 66.2499 77.5502 68.4675 75.9151 70.1026C74.28 71.7377 72.0624 72.6562 69.75 72.6562H61.0312M31.9688 31.9688H18.8906C16.4843 31.9688 14.5312 33.9218 14.5312 36.3281V79.9219C14.5312 82.3282 16.4843 84.2812 18.8906 84.2812H56.6719C59.0782 84.2812 61.0312 82.3282 61.0312 79.9219V72.6562M31.9688 31.9688H56.6719C59.0782 31.9688 61.0312 33.9218 61.0312 36.3281V72.6562M29.0625 61.0312L34.875 66.8438L46.5 52.3125" stroke="black" stroke-width="1.5" stroke-linecap="round" stroke-linejoin="round"/>
</svg>
