<svg width="75" height="75" viewBox="0 0 75 75" fill="none" xmlns="http://www.w3.org/2000/svg">
<path d="M32.8125 18.75H63.2812H32.8125ZM32.8125 18.75C32.8125 19.9932 32.3186 21.1855 31.4396 22.0646C30.5605 22.9436 29.3682 23.4375 28.125 23.4375C26.8818 23.4375 25.6895 22.9436 24.8104 22.0646C23.9314 21.1855 23.4375 19.9932 23.4375 18.75M32.8125 18.75C32.8125 17.5068 32.3186 16.3145 31.4396 15.4354C30.5605 14.5564 29.3682 14.0625 28.125 14.0625C26.8818 14.0625 25.6895 14.5564 24.8104 15.4354C23.9314 16.3145 23.4375 17.5068 23.4375 18.75M11.7188 18.75H23.4375H11.7188ZM32.8125 56.25H63.2812H32.8125ZM32.8125 56.25C32.8125 57.4932 32.3186 58.6855 31.4396 59.5646C30.5605 60.4436 29.3682 60.9375 28.125 60.9375C26.8818 60.9375 25.6895 60.4436 24.8104 59.5646C23.9314 58.6855 23.4375 57.4932 23.4375 56.25M32.8125 56.25C32.8125 55.0068 32.3186 53.8145 31.4396 52.9354C30.5605 52.0564 29.3682 51.5625 28.125 51.5625C26.8818 51.5625 25.6895 52.0564 24.8104 52.9354C23.9314 53.8145 23.4375 55.0068 23.4375 56.25M11.7188 56.25H23.4375H11.7188ZM51.5625 37.5H63.2812H51.5625ZM51.5625 37.5C51.5625 38.7432 51.0686 39.9355 50.1896 40.8146C49.3105 41.6936 48.1182 42.1875 46.875 42.1875C45.6318 42.1875 44.4395 41.6936 43.5604 40.8146C42.6814 39.9355 42.1875 38.7432 42.1875 37.5M51.5625 37.5C51.5625 36.2568 51.0686 35.0645 50.1896 34.1854C49.3105 33.3064 48.1182 32.8125 46.875 32.8125C45.6318 32.8125 44.4395 33.3064 43.5604 34.1854C42.6814 35.0645 42.1875 36.2568 42.1875 37.5M11.7188 37.5H42.1875H11.7188Z" fill="white"/>
<path d="M32.8125 18.75H63.2812M32.8125 18.75C32.8125 19.9932 32.3186 21.1855 31.4396 22.0646C30.5605 22.9436 29.3682 23.4375 28.125 23.4375C26.8818 23.4375 25.6895 22.9436 24.8104 22.0646C23.9314 21.1855 23.4375 19.9932 23.4375 18.75M32.8125 18.75C32.8125 17.5068 32.3186 16.3145 31.4396 15.4354C30.5605 14.5564 29.3682 14.0625 28.125 14.0625C26.8818 14.0625 25.6895 14.5564 24.8104 15.4354C23.9314 16.3145 23.4375 17.5068 23.4375 18.75M23.4375 18.75H11.7188M32.8125 56.25H63.2812M32.8125 56.25C32.8125 57.4932 32.3186 58.6855 31.4396 59.5646C30.5605 60.4436 29.3682 60.9375 28.125 60.9375C26.8818 60.9375 25.6895 60.4436 24.8104 59.5646C23.9314 58.6855 23.4375 57.4932 23.4375 56.25M32.8125 56.25C32.8125 55.0068 32.3186 53.8145 31.4396 52.9354C30.5605 52.0564 29.3682 51.5625 28.125 51.5625C26.8818 51.5625 25.6895 52.0564 24.8104 52.9354C23.9314 53.8145 23.4375 55.0068 23.4375 56.25M23.4375 56.25H11.7188M51.5625 37.5H63.2812M51.5625 37.5C51.5625 38.7432 51.0686 39.9355 50.1896 40.8146C49.3105 41.6936 48.1182 42.1875 46.875 42.1875C45.6318 42.1875 44.4395 41.6936 43.5604 40.8146C42.6814 39.9355 42.1875 38.7432 42.1875 37.5M51.5625 37.5C51.5625 36.2568 51.0686 35.0645 50.1896 34.1854C49.3105 33.3064 48.1182 32.8125 46.875 32.8125C45.6318 32.8125 44.4395 33.3064 43.5604 34.1854C42.6814 35.0645 42.1875 36.2568 42.1875 37.5M42.1875 37.5H11.7188" stroke="black" stroke-width="1.5" stroke-linecap="round" stroke-linejoin="round"/>
</svg>
